<?xml version="1.0" encoding="utf-8"?>
<!-- Generator: Adobe Illustrator 22.0.1, SVG Export Plug-In . SVG Version: 6.00 Build 0)  -->
<svg version="1.1" id="Calque_1" xmlns="http://www.w3.org/2000/svg" xmlns:xlink="http://www.w3.org/1999/xlink" x="0px" y="0px"
	 viewBox="0 0 70.3 78.1" enable-background="new 0 0 70.3 78.1" xml:space="preserve">
<path fill="#E4E4E4" d="M69,43.4c-1-3-2.6-5.7-4.6-7.9c-2.1-2.2-4.6-4-7.7-5.3c-3.1-1.3-6.6-2-10.7-2l-8.5,0V10.6h23.3l0.1-10.2H4.5
	L4.4,10.6h23.4v17.6l-3.6,0c-13.5,0.1-24.4,11-24.4,24.5l0,25.3h10.4l0-25.7c0-8.5,6.8-15.5,15.3-15.6l2.4,0V52h0v26h18.1
	c3.7,0,7.1-0.6,10.2-1.8c3-1.2,5.6-2.9,7.8-5.1c2.2-2.2,3.8-4.8,5-7.9c1.1-3.1,1.7-6.5,1.7-10.3C70.5,49.6,70,46.4,69,43.4z
	 M59.8,59.6c-0.7,2-1.6,3.8-2.8,5.2c-1.2,1.5-2.8,2.6-4.6,3.5c-1.9,0.8-4,1.3-6.4,1.3h-8.4V36.7h8.4c2.3,0,4.4,0.4,6.3,1.2
	c1.9,0.8,3.4,1.9,4.7,3.4c1.3,1.5,2.2,3.2,2.9,5.2c0.7,2,1,4.2,1,6.6C60.8,55.4,60.4,57.6,59.8,59.6z"/>
</svg>
